<svg id="visual" viewBox="0 0 960 300" width="960" height="300" xmlns="http://www.w3.org/2000/svg" xmlns:xlink="http://www.w3.org/1999/xlink" version="1.1"><rect x="0" y="0" width="960" height="300" fill="#001220"></rect><path d="M0 109L22.8 104.8C45.7 100.7 91.3 92.3 137 94C182.7 95.7 228.3 107.3 274 108.5C319.7 109.7 365.3 100.3 411.2 100C457 99.7 503 108.3 548.8 113.7C594.7 119 640.3 121 686 120.8C731.7 120.7 777.3 118.3 823 118.3C868.7 118.3 914.3 120.7 937.2 121.8L960 123L960 0L937.2 0C914.3 0 868.7 0 823 0C777.3 0 731.7 0 686 0C640.3 0 594.7 0 548.8 0C503 0 457 0 411.2 0C365.3 0 319.7 0 274 0C228.3 0 182.7 0 137 0C91.3 0 45.7 0 22.8 0L0 0Z" fill="#fa7268"></path><path d="M0 62L22.8 64.8C45.7 67.7 91.3 73.3 137 79.7C182.7 86 228.3 93 274 92C319.7 91 365.3 82 411.2 82.2C457 82.3 503 91.7 548.8 93C594.7 94.3 640.3 87.7 686 85.7C731.7 83.7 777.3 86.3 823 86C868.7 85.7 914.3 82.3 937.2 80.7L960 79L960 0L937.2 0C914.3 0 868.7 0 823 0C777.3 0 731.7 0 686 0C640.3 0 594.7 0 548.8 0C503 0 457 0 411.2 0C365.3 0 319.7 0 274 0C228.3 0 182.7 0 137 0C91.3 0 45.7 0 22.8 0L0 0Z" fill="#ef5f67"></path><path d="M0 69L22.8 66.3C45.7 63.7 91.3 58.3 137 55.2C182.7 52 228.3 51 274 51.8C319.7 52.7 365.3 55.3 411.2 54.7C457 54 503 50 548.8 53.2C594.7 56.3 640.3 66.7 686 67C731.7 67.3 777.3 57.7 823 56.8C868.7 56 914.3 64 937.2 68L960 72L960 0L937.2 0C914.3 0 868.7 0 823 0C777.3 0 731.7 0 686 0C640.3 0 594.7 0 548.8 0C503 0 457 0 411.2 0C365.3 0 319.7 0 274 0C228.3 0 182.7 0 137 0C91.3 0 45.7 0 22.8 0L0 0Z" fill="#e34c67"></path><path d="M0 42L22.8 41.2C45.7 40.3 91.3 38.7 137 38.8C182.7 39 228.3 41 274 41.7C319.7 42.3 365.3 41.7 411.2 39.8C457 38 503 35 548.8 36.5C594.7 38 640.3 44 686 46.3C731.7 48.7 777.3 47.3 823 45C868.7 42.7 914.3 39.3 937.2 37.7L960 36L960 0L937.2 0C914.3 0 868.7 0 823 0C777.3 0 731.7 0 686 0C640.3 0 594.7 0 548.8 0C503 0 457 0 411.2 0C365.3 0 319.7 0 274 0C228.3 0 182.7 0 137 0C91.3 0 45.7 0 22.8 0L0 0Z" fill="#d53867"></path><path d="M0 33L22.8 32.3C45.7 31.7 91.3 30.3 137 30.5C182.7 30.7 228.3 32.3 274 31.2C319.7 30 365.3 26 411.2 25.3C457 24.7 503 27.3 548.8 27.7C594.7 28 640.3 26 686 24.3C731.7 22.7 777.3 21.3 823 22.3C868.7 23.3 914.3 26.7 937.2 28.3L960 30L960 0L937.2 0C914.3 0 868.7 0 823 0C777.3 0 731.7 0 686 0C640.3 0 594.7 0 548.8 0C503 0 457 0 411.2 0C365.3 0 319.7 0 274 0C228.3 0 182.7 0 137 0C91.3 0 45.7 0 22.8 0L0 0Z" fill="#c62368"></path></svg>